ply
format ascii 1.0
comment Created by Blender 2.82 (sub 7) - www.blender.org, source file: ''
element vertex 36
property float x
property float y
property float z
property float nx
property float ny
property float nz
property uchar red
property uchar green
property uchar blue
property uchar alpha
element face 12
property list uchar uint vertex_indices
end_header
17.000000 729.000000 0.000000 0.000000 0.000000 1.000000 255 0 0 255
47.000000 714.000000 0.000000 0.000000 0.000000 1.000000 255 0 0 255
43.000000 774.000000 0.000000 0.000000 0.000000 1.000000 255 0 0 255
92.000000	729.000000	0.000000 0.000000 0.000000 1.000000 0 255 0 255
122.000000	714.000000	0.000000 0.000000 0.000000 1.000000 0 255 0 255
118.000000	774.000000	0.000000 0.000000 0.000000 1.000000 0 255 0 255
167.000000	729.000000	0.000000 0.000000 0.000000 1.000000 0 0 255 255
197.000000	714.000000	0.000000 0.000000 0.000000 1.000000 0 0 255 255
193.000000	774.000000	0.000000 0.000000 0.000000 1.000000 0 0 255 255
242.000000	729.000000	0.000000 0.000000 0.000000 1.000000 255 255 0 255
272.000000	714.000000	0.000000 0.000000 0.000000 1.000000 255 255 0 255
268.000000	774.000000	0.000000 0.000000 0.000000 1.000000 255 255 0 255
317.000000	729.000000	0.000000 0.000000 0.000000 1.000000 255 0 255 255
347.000000	714.000000	0.000000 0.000000 0.000000 1.000000 255 0 255 255
343.000000	774.000000	0.000000 0.000000 0.000000 1.000000 255 0 255 255
392.000000	729.000000	0.000000 0.000000 0.000000 1.000000 0 255 255 255
422.000000	714.000000	0.000000 0.000000 0.000000 1.000000 0 255 255 255
418.000000	774.000000	0.000000 0.000000 0.000000 1.000000 0 255 255 255
77.000000 529.000000 0.000000 0.000000 0.000000 1.000000 255 0 0 255
47.000000 514.000000 0.000000 0.000000 0.000000 1.000000 255 0 0 255
43.000000 574.000000 0.000000 0.000000 0.000000 1.000000 255 0 0 255
152.000000	529.000000	0.000000 0.000000 0.000000 1.000000 0 255 0 255
122.000000	514.000000	0.000000 0.000000 0.000000 1.000000 0 255 0 255
118.000000	574.000000	0.000000 0.000000 0.000000 1.000000 0 255 0 255
227.000000	529.000000	0.000000 0.000000 0.000000 1.000000 0 0 255 255
197.000000	514.000000	0.000000 0.000000 0.000000 1.000000 0 0 255 255
193.000000	574.000000	0.000000 0.000000 0.000000 1.000000 0 0 255 255
302.000000	529.000000	0.000000 0.000000 0.000000 1.000000 255 255 0 255
272.000000	514.000000	0.000000 0.000000 0.000000 1.000000 255 255 0 255
268.000000	574.000000	0.000000 0.000000 0.000000 1.000000 255 255 0 255
377.000000	529.000000	0.000000 0.000000 0.000000 1.000000 255 0 255 255
347.000000	514.000000	0.000000 0.000000 0.000000 1.000000 255 0 255 255
343.000000	574.000000	0.000000 0.000000 0.000000 1.000000 255 0 255 255
452.000000	529.000000	0.000000 0.000000 0.000000 1.000000 0 255 255 255
422.000000	514.000000	0.000000 0.000000 0.000000 1.000000 0 255 255 255
418.000000	574.000000	0.000000 0.000000 0.000000 1.000000 0 255 255 255
3 0 1 2
3 3 4 5
3 6 7 8
3 9 10 11
3 12 13 14
3 15 16 17
3 18 19 20
3 21 22 23
3 24 25 26
3 27 28 29
3 30 31 32
3 33 34 35

