ply
format ascii 1.0
comment Created by Blender 2.82 (sub 7) - www.blender.org, source file: ''
element vertex 12
property float x
property float y
property float z
property float nx
property float ny
property float nz
property uchar red
property uchar green
property uchar blue
property uchar alpha
element face 4
property list uchar uint vertex_indices
end_header
200.042892 54.017460 -0.000009 0.000000 0.000000 -0.999969 254 211 5 255
200.042892 94.017464 0.000020 0.000000 0.000000 -1.000000 255 211 4 255
240.042877 94.017464 0.000020 0.000000 0.000000 -1.000000 255 226 22 255
163.322250 48.454903 -166.161308 0.000000 0.000000 1.000000 255 8 40 255
396.454315 48.454903 -166.161308 0.000000 0.000000 1.000000 255 8 40 255
279.888275 281.586975 -166.161476 0.000000 0.000000 1.000000 255 8 40 255
210.773560 200.748703 -88.084541 0.000000 0.000000 0.999969 19 255 42 255
310.773560 100.748711 -88.084610 0.000000 0.000000 1.000000 20 255 43 255
360.773560 150.748703 -88.084579 0.000000 0.000000 1.000000 19 255 42 255
186.530731 134.822052 0.000071 0.000000 0.000000 1.000000 46 47 255 255
286.530762 84.822044 0.000037 0.000000 0.000000 1.000000 33 35 255 255
346.530731 234.822052 0.000140 0.000000 0.000000 1.000000 35 37 255 255
3 0 1 2
3 3 4 5
3 6 7 8
3 9 10 11
