ply
format ascii 1.0
comment Created by Blender 2.82 (sub 7) - www.blender.org, source file: ''
element vertex 10
property float x
property float y
property float z
property float nx
property float ny
property float nz
property uchar red
property uchar green
property uchar blue
property uchar alpha
element face 10
property list uchar uint vertex_indices
end_header
32.290466 126.408463 100.000023 0.000000 -0.000000 1.000000 163 138 163 255
141.608810 36.264839 100.000000 0.000000 -0.000000 1.000000 163 138 163 255
143.029617 127.516617 100.000023 0.000000 -0.000000 1.000000 163 138 163 255
232.290466 123.167900 100.000023 -0.000000 -0.000000 1.000000 163 138 163 255
232.290405 36.264793 100.000000 -0.000000 -0.000000 1.000000 163 138 163 255
32.290489 236.264847 100.000046 -0.000000 -0.000000 1.000000 163 138 163 255
143.033630 127.773788 100.000023 -0.000000 -0.000000 1.000000 163 138 163 255
144.722855 236.264816 100.000046 -0.000000 -0.000000 1.000000 164 139 164 255
232.290527 236.264801 100.000046 -0.000000 -0.000000 1.000000 164 139 164 255
32.290443 36.264893 100.000000 -0.000000 -0.000000 1.000000 163 138 163 255
3 0 1 2
3 3 1 4
3 5 6 7
3 6 3 8
3 2 6 0
3 0 9 1
3 3 2 1
3 5 0 6
3 3 6 2
3 7 6 8
