ply
format ascii 1.0
comment Created by Blender 2.82 (sub 7) - www.blender.org, source file: ''
element vertex 30
property float x
property float y
property float z
property float nx
property float ny
property float nz
property uchar red
property uchar green
property uchar blue
property uchar alpha
element face 10
property list uchar uint vertex_indices
end_header
24.224133 420.230221 -0.000013 0.000000 0.000000 -1.000000 30 29 255 255
24.224133 460.230225 0.000010 0.000000 0.000000 -1.000000 7 0 255 255
64.224129 460.230225 0.000010 0.000000 0.000000 -1.000000 8 4 255 255
44.224129 420.230221 -0.000013 0.000000 0.000000 0.999969 8 3 255 255
84.224129 420.230221 -0.000013 0.000000 0.000000 1.000000 7 1 255 255
84.224129 460.230225 0.000010 0.000000 0.000000 1.000000 12 9 255 255
104.224136 420.230221 -0.000013 0.000000 0.000000 -1.000000 8 3 255 255
104.224136 460.230225 0.000010 0.000000 0.000000 -1.000000 10 8 255 255
144.224136 420.230221 -0.000013 0.000000 0.000000 -0.999969 29 29 255 255
164.224136 420.230221 -0.000013 0.000000 0.000000 -1.000000 22 20 255 255
124.224136 460.230225 0.000010 0.000000 0.000000 -0.999969 26 26 255 255
164.224136 460.230225 0.000010 0.000000 0.000000 -1.000000 7 1 255 255
204.224136 420.230221 -0.000013 0.000000 0.000000 -1.000000 7 0 255 255
184.224136 460.230225 0.000010 0.000000 0.000000 -1.000000 7 0 255 255
224.224121 460.230225 0.000010 0.000000 0.000000 -1.000000 9 6 255 255
224.224121 420.230221 -0.000013 0.000000 0.000000 1.000000 8 3 255 255
264.224121 420.230221 -0.000013 0.000000 0.000000 1.000000 17 16 255 255
244.224121 460.230225 0.000010 0.000000 0.000000 1.000000 27 26 255 255
284.224121 420.230221 -0.000013 0.000000 0.000000 -1.000000 43 42 255 255
284.224121 460.230225 0.000010 0.000000 0.000000 -1.000000 7 2 255 255
324.224121 440.230221 -0.000007 0.000000 0.000000 -1.000000 22 21 255 255
344.224121 440.230221 -0.000007 0.000000 0.000000 1.000000 12 9 255 255
384.224121 420.230221 -0.000013 0.000000 0.000000 1.000000 8 4 255 255
384.224121 460.230225 0.000010 0.000000 0.000000 1.000000 9 4 255 255
114.417374 232.971710 0.000096 0.000000 0.000000 1.000000 7 0 255 255
214.417358 132.971710 0.000043 0.000000 0.000000 1.000000 7 0 255 255
264.417358 182.971710 0.000070 0.000000 0.000000 1.000000 7 0 255 255
275.691498 146.397308 0.000048 0.000000 0.000000 1.000000 7 3 255 255
375.691528 96.397301 0.000021 0.000000 0.000000 1.000000 7 0 255 255
435.691498 246.397308 0.000100 0.000000 0.000000 1.000000 32 31 255 255
3 0 1 2
3 3 4 5
3 6 7 8
3 9 10 11
3 12 13 14
3 15 16 17
3 18 19 20
3 21 22 23
3 24 25 26
3 27 28 29
